<?xml version="1.0" encoding="UTF-8" standalone="no"?>
<svg width="24px" height="24px" viewBox="0 0 24 24" version="1.1" xmlns="http://www.w3.org/2000/svg" xmlns:xlink="http://www.w3.org/1999/xlink" xmlns:sketch="http://www.bohemiancoding.com/sketch/ns">
    <title>Group</title>
    <description>Created with Sketch (http://www.bohemiancoding.com/sketch)</description>
    <defs></defs>
    <g id="Page-1" stroke="none" stroke-width="1" fill="none" fill-rule="evenodd" sketch:type="MSPage">
        <g id="Simple-line-icons-by-Mirko-Monti" sketch:type="MSLayerGroup" transform="translate(-259.000000, -768.000000)" fill="#FFFFFF">
            <g id="Group" transform="translate(260.000000, 769.000000)" sketch:type="MSShapeGroup">
                <path d="M11.541,-0.289 L11.33,-0.29 C5.148,-0.29 0.028,4.739 -0.085,10.923 C-0.199,17.221 4.83,22.437 11.127,22.552 L11.337,22.553 C17.519,22.553 22.641,17.522 22.754,11.34 C22.809,8.288 21.674,5.399 19.556,3.204 C17.438,1.006 14.592,-0.231 11.541,-0.289 L11.541,-0.289 Z M11.337,21.733 L11.14,21.73 C5.296,21.626 0.627,16.784 0.734,10.939 C0.838,5.199 5.59,0.53 11.329,0.53 L11.526,0.532 C14.359,0.581 17,1.733 18.965,3.773 C20.932,5.811 21.986,8.493 21.935,11.322 C21.83,17.063 17.075,21.733 11.337,21.733 L11.337,21.733 Z" id="Shape"></path>
                <path d="M15.013,7.017 L11.346,10.553 L7.807,6.884 C7.65,6.721 7.391,6.717 7.228,6.873 C7.064,7.029 7.06,7.29 7.217,7.452 L10.754,11.122 L7.087,14.657 C6.924,14.815 6.919,15.073 7.076,15.237 C7.157,15.32 7.264,15.361 7.371,15.361 C7.473,15.361 7.577,15.324 7.656,15.247 L11.323,11.711 L14.859,15.377 C14.941,15.462 15.048,15.504 15.155,15.504 C15.258,15.504 15.361,15.466 15.439,15.388 C15.603,15.232 15.608,14.972 15.45,14.808 L11.914,11.141 L15.581,7.605 C15.744,7.449 15.749,7.19 15.593,7.026 C15.435,6.863 15.175,6.861 15.013,7.017 L15.013,7.017 Z" id="Shape"></path>
            </g>
        </g>
    </g>
</svg>